<svg width="146" height="81" viewBox="0 0 146 81" fill="none" xmlns="http://www.w3.org/2000/svg">
<path d="M17.8289 22.4549C17.8289 11.6559 26.5832 2.90161 37.3822 2.90161H122.986C132.407 2.90161 137.053 14.3567 130.293 20.919C129.881 21.3187 129.437 21.6839 128.966 22.011L127.966 22.705C124.305 25.245 120.038 26.7733 115.597 27.1355L103.183 28.1477H81.4978C72.9224 28.1477 64.5125 30.5092 57.1906 34.9731C54.83 36.4122 52.6019 38.0582 50.5326 39.8915L45.4156 44.4248C44.7048 45.0546 44.0541 45.749 43.4718 46.4992C35.1037 57.2804 17.8289 51.363 17.8289 37.7152V22.4549Z" stroke="white"/>
<path d="M133.246 58.9784C133.246 69.7774 124.492 78.5317 113.693 78.5317H28.089C18.6679 78.5317 14.0222 67.0767 20.7819 60.5144C21.1936 60.1147 21.6374 59.7494 22.1088 59.4223L23.1091 58.7283C26.7699 56.1883 31.0365 54.66 35.4774 54.2979L47.8914 53.2856H69.5769C78.1523 53.2856 86.5622 50.9242 93.8842 46.4603C96.2447 45.0211 98.4728 43.3752 100.542 41.5419L105.659 37.0085C106.37 36.3788 107.021 35.6844 107.603 34.9342C115.971 24.1529 133.246 30.0704 133.246 43.7181V58.9784Z" stroke="white"/>
</svg>
