<svg width="578" height="79" viewBox="0 0 578 79" fill="none" xmlns="http://www.w3.org/2000/svg">
<path d="M2.54248 20.0533C2.54248 9.25431 11.2968 0.5 22.0958 0.5H107.699C117.12 0.5 121.766 11.9551 115.006 18.5174C114.595 18.9171 114.151 19.2823 113.679 19.6094L112.679 20.3034C109.018 22.8434 104.752 24.3717 100.311 24.7338L87.8969 25.7461H66.2114C57.636 25.7461 49.2262 28.1075 41.9042 32.5715C39.5436 34.0106 37.3155 35.6566 35.2462 37.4899L30.1293 42.0232C29.4185 42.6529 28.7677 43.3474 28.1854 44.0976C19.8173 54.8788 2.54248 48.9613 2.54248 35.3136V20.0533Z" stroke="white"/>
<path d="M117.959 56.5766C117.959 67.3756 109.205 76.1299 98.4061 76.1299H12.8026C3.38154 76.1299 -1.2642 64.6748 5.49548 58.1125C5.9072 57.7128 6.35102 57.3476 6.82247 57.0205L7.82275 56.3264C11.4835 53.7865 15.7501 52.2581 20.191 51.896L32.605 50.8838H54.2905C62.866 50.8838 71.2758 48.5223 78.5978 44.0584C80.9583 42.6193 83.1864 40.9733 85.2558 39.14L90.3727 34.6067C91.0835 33.9769 91.7342 33.2825 92.3165 32.5323C100.685 21.7511 117.959 27.6685 117.959 41.3163V56.5766Z" stroke="white"/>
<path d="M151.638 20.0533C151.638 9.25431 160.393 0.5 171.192 0.5H256.795C266.216 0.5 270.862 11.9551 264.102 18.5174C263.69 18.9171 263.247 19.2823 262.775 19.6094L261.775 20.3034C258.114 22.8434 253.848 24.3717 249.407 24.7338L236.993 25.7461H215.307C206.732 25.7461 198.322 28.1075 191 32.5715C188.639 34.0106 186.411 35.6566 184.342 37.4899L179.225 42.0232C178.514 42.6529 177.863 43.3474 177.281 44.0976C168.913 54.8788 151.638 48.9613 151.638 35.3136V20.0533Z" stroke="white"/>
<path d="M267.055 56.5766C267.055 67.3756 258.301 76.1299 247.502 76.1299H161.898C152.477 76.1299 147.831 64.6748 154.591 58.1125C155.003 57.7128 155.446 57.3476 155.918 57.0205L156.918 56.3264C160.579 53.7865 164.846 52.2581 169.286 51.896L181.7 50.8838H203.386C211.961 50.8838 220.371 48.5223 227.693 44.0584C230.054 42.6193 232.282 40.9733 234.351 39.14L239.468 34.6067C240.179 33.9769 240.83 33.2825 241.412 32.5323C249.78 21.7511 267.055 27.6685 267.055 41.3163V56.5766Z" stroke="white"/>
<path d="M300.733 20.0533C300.733 9.25431 309.488 0.5 320.287 0.5H405.89C415.311 0.5 419.957 11.9551 413.197 18.5174C412.786 18.9171 412.342 19.2823 411.87 19.6094L410.87 20.3034C407.209 22.8434 402.943 24.3717 398.502 24.7338L386.088 25.7461H364.402C355.827 25.7461 347.417 28.1075 340.095 32.5715C337.735 34.0106 335.506 35.6566 333.437 37.4899L328.32 42.0232C327.609 42.6529 326.959 43.3474 326.376 44.0976C318.008 54.8788 300.733 48.9613 300.733 35.3136V20.0533Z" stroke="white"/>
<path d="M416.15 56.5766C416.15 67.3756 407.396 76.1299 396.597 76.1299H310.994C301.572 76.1299 296.927 64.6748 303.686 58.1125C304.098 57.7128 304.542 57.3476 305.013 57.0205L306.014 56.3264C309.674 53.7865 313.941 52.2581 318.382 51.896L330.796 50.8838H352.481C361.057 50.8838 369.467 48.5223 376.789 44.0584C379.149 42.6193 381.377 40.9733 383.447 39.14L388.564 34.6067C389.274 33.9769 389.925 33.2825 390.507 32.5323C398.876 21.7511 416.15 27.6685 416.15 41.3163V56.5766Z" stroke="white"/>
<path d="M449.829 20.0533C449.829 9.25431 458.583 0.5 469.382 0.5H554.986C564.407 0.5 569.053 11.9551 562.293 18.5174C561.881 18.9171 561.437 19.2823 560.966 19.6094L559.966 20.3034C556.305 22.8434 552.038 24.3717 547.597 24.7338L535.183 25.7461H513.498C504.922 25.7461 496.513 28.1075 489.191 32.5715C486.83 34.0106 484.602 35.6566 482.533 37.4899L477.416 42.0232C476.705 42.6529 476.054 43.3474 475.472 44.0976C467.104 54.8788 449.829 48.9613 449.829 35.3136V20.0533Z" stroke="white"/>
<path d="M565.246 56.5766C565.246 67.3756 556.492 76.1299 545.693 76.1299H460.089C450.668 76.1299 446.022 64.6748 452.782 58.1125C453.194 57.7128 453.637 57.3476 454.109 57.0205L455.109 56.3264C458.77 53.7865 463.036 52.2581 467.477 51.896L479.891 50.8838H501.577C510.152 50.8838 518.562 48.5223 525.884 44.0584C528.245 42.6193 530.473 40.9733 532.542 39.14L537.659 34.6067C538.37 33.9769 539.021 33.2825 539.603 32.5323C547.971 21.7511 565.246 27.6685 565.246 41.3163V56.5766Z" stroke="white"/>
</svg>
